<svg xmlns="http://www.w3.org/2000/svg" width="16" height="13.589" viewBox="0 0 16 13.589">
  <g id="Icon_feather-users" data-name="Icon feather-users" transform="translate(-0.5 -3.366)">
    <path id="Trazado_240" data-name="Trazado 240" d="M11.682,26.318V25.045A2.545,2.545,0,0,0,9.136,22.5H4.045A2.545,2.545,0,0,0,1.5,25.045v1.273" transform="translate(0 -10.364)" fill="none" stroke="#fff" stroke-linecap="round" stroke-linejoin="round" stroke-width="2"/>
    <path id="Trazado_241" data-name="Trazado 241" d="M12.591,7.045A2.545,2.545,0,1,1,10.045,4.5a2.545,2.545,0,0,1,2.545,2.545Z" transform="translate(-3.455)" fill="none" stroke="#fff" stroke-linecap="round" stroke-linejoin="round" stroke-width="2"/>
    <path id="Trazado_242" data-name="Trazado 242" d="M31.909,26.43V25.158A2.545,2.545,0,0,0,30,22.7" transform="translate(-16.409 -10.476)" fill="none" stroke="#fff" stroke-linecap="round" stroke-linejoin="round" stroke-width="2"/>
    <path id="Trazado_243" data-name="Trazado 243" d="M24,4.7a2.545,2.545,0,0,1,0,4.932" transform="translate(-12.955 -0.112)" fill="none" stroke="#fff" stroke-linecap="round" stroke-linejoin="round" stroke-width="2"/>
  </g>
</svg>
